 <svg version="1.0" xmlns="http://www.w3.org/2000/svg"  width="151.000000pt" height="148.000000pt" viewBox="0 0 151.000000 148.000000"  preserveAspectRatio="xMidYMid meet">  <g transform="translate(0.000000,148.000000) scale(0.100000,-0.100000)" fill="#000000" stroke="none"> <path d="M675 1440 c-240 -28 -451 -178 -555 -395 -225 -468 115 -1008 635 -1007 275 0 516 151 635 397 166 345 25 761 -318 934 -116 58 -270 86 -397 71z m225 -45 c67 -16 170 -53 170 -62 0 -3 -9 -20 -20 -38 -20 -32 -20 -32 -72 -23 -29 6 -84 7 -123 4 -64 -6 -74 -4 -130 24 -33 16 -91 37 -128 47 -79 19 -76 29 10 48 80 18 215 18 293 0z m-222 -107 l77 -34 -2 -49 c-2 -28 -5 -73 -8 -100 l-6 -51 -87 -47 c-48 -26 -108 -59 -134 -73 l-47 -27 -91 39 -90 38 6 61 c10 100 32 178 57 197 12 10 51 34 87 53 80 44 123 42 238 -7z m586 -110 c78 -90 164 -274 138 -300 -8 -8 -26 5 -65 48 -30 33 -78 73 -105 89 -39 23 -56 42 -74 79 -13 27 -40 74 -61 104 l-38 54 22 34 21 34 58 -45 c32 -25 79 -69 104 -97z m-285 53 c39 -6 59 -14 73 -32 27 -34 100 -179 90 -179 -5 0 -35 -20 -68 -45 -32 -24 -62 -45 -66 -45 -3 0 -41 20 -82 45 -42 25 -79 45 -82 45 -3 0 -19 9 -35 21 -28 19 -29 24 -24 72 13 116 13 115 48 120 53 6 89 6 146 -2z m-684 -35 c-8 -19 -20 -79 -27 -133 -10 -86 -16 -105 -50 -158 -21 -32 -46 -80 -55 -106 -16 -43 -20 -47 -50 -47 -39 0 -39 3 -19 111 24 123 86 249 164 330 45 46 55 47 37 3z m546 -220 c52 -29 109 -62 126 -72 l33 -19 0 -147 0 -148 -107 -50 c-60 -28 -116 -55 -125 -60 -22 -12 -99 20 -196 83 -81 52 -82 56 -82 216 l1 106 127 72 c70 39 128 71 128 72 1 1 44 -23 95 -53z m418 -19 c92 -76 120 -118 127 -198 5 -54 3 -72 -14 -105 -25 -49 -95 -123 -148 -156 l-38 -25 -79 58 -78 57 0 153 0 152 49 36 c26 20 61 46 78 58 16 12 31 22 34 22 3 0 34 -23 69 -52z m-866 -61 l58 -26 -3 -128 -3 -127 -77 -40 c-90 -47 -80 -52 -149 79 l-41 78 27 64 c15 35 40 82 56 104 32 44 24 44 132 -4z m-224 -231 c16 -34 45 -86 65 -116 24 -35 36 -66 37 -89 0 -30 19 -109 44 -188 13 -40 -21 -25 -70 31 -64 72 -132 213 -150 310 -21 112 -21 116 16 115 27 -1 33 -7 58 -63z m1241 -82 c0 -26 -52 -146 -86 -200 -44 -69 -96 -126 -165 -179 l-57 -44 -21 35 -21 35 37 48 c20 26 49 74 65 108 21 44 37 65 61 76 41 20 128 98 146 132 11 20 17 23 28 15 7 -6 13 -18 13 -26z m-877 -30 c30 -21 87 -54 128 -73 41 -19 75 -35 77 -36 8 -5 21 -209 14 -216 -12 -12 -118 -48 -174 -58 -45 -9 -54 -7 -116 24 -37 19 -77 42 -89 52 -27 24 -62 120 -69 193 l-6 56 89 46 c48 25 89 47 90 48 1 0 26 -16 56 -36z m555 -57 l63 -48 -38 -70 c-59 -109 -77 -125 -157 -133 -66 -7 -142 -3 -154 9 -7 7 -20 166 -15 181 4 13 226 122 233 115 3 -3 33 -27 68 -54z m-35 -307 c9 -17 17 -34 17 -39 0 -11 -94 -47 -170 -65 -36 -8 -101 -15 -145 -15 -71 0 -100 4 -192 25 -15 3 -23 13 -23 25 0 16 7 20 33 20 17 0 70 14 117 31 74 27 97 31 180 30 52 -1 109 3 125 8 17 5 32 10 35 10 3 1 13 -13 23 -30z"/> </g> </svg> 